<?xml version="1.0" encoding="utf-8"?>
<!-- Generator: Adobe Illustrator 16.0.0, SVG Export Plug-In . SVG Version: 6.00 Build 0)  -->
<!DOCTYPE svg PUBLIC "-//W3C//DTD SVG 1.1//EN" "http://www.w3.org/Graphics/SVG/1.1/DTD/svg11.dtd">
<svg version="1.1" id="Layer_1" xmlns="http://www.w3.org/2000/svg" xmlns:xlink="http://www.w3.org/1999/xlink" x="0px" y="0px"
	 width="16px" height="16px" viewBox="0 0 16 16" enable-background="new 0 0 16 16" xml:space="preserve">
<g>
	<g id="calendar_1_">
		<path fill="#6D7D86" d="M14.695,1.474H12.52V0.47c0-0.278-0.227-0.502-0.504-0.502c-0.275,0-0.502,0.224-0.502,0.502v1.004H8.503
			V0.47c0-0.278-0.225-0.502-0.502-0.502S7.498,0.192,7.498,0.47v1.004H4.486V0.47c0-0.278-0.225-0.502-0.502-0.502
			S3.482,0.192,3.482,0.47v1.004H1.307c-0.739,0-1.339,0.599-1.339,1.339v11.882c0,0.738,0.6,1.338,1.339,1.338h13.388
			c0.738,0,1.338-0.6,1.338-1.338V2.813C16.033,2.073,15.434,1.474,14.695,1.474z M15.029,14.694c0,0.184-0.15,0.334-0.334,0.334
			H1.307c-0.185,0-0.335-0.15-0.335-0.334V2.813c0-0.184,0.15-0.335,0.335-0.335h2.175v1.004c0,0.278,0.226,0.502,0.502,0.502
			S4.486,3.76,4.486,3.481V2.478h3.012v1.004C7.498,3.76,7.723,3.984,8,3.984S8.503,3.76,8.503,3.481V2.478h3.011v1.004
			c0,0.278,0.227,0.502,0.502,0.502c0.277,0,0.504-0.224,0.504-0.502V2.478h2.176c0.184,0,0.334,0.151,0.334,0.335V14.694z"/>
		<rect x="3.482" y="5.992" fill="#6D7D86" width="2.008" height="1.505"/>
		<rect x="3.482" y="8.503" fill="#6D7D86" width="2.008" height="1.505"/>
		<rect x="3.482" y="11.013" fill="#6D7D86" width="2.008" height="1.506"/>
		<rect x="6.997" y="11.013" fill="#6D7D86" width="2.009" height="1.506"/>
		<rect x="6.997" y="8.503" fill="#6D7D86" width="2.009" height="1.505"/>
		<rect x="6.997" y="5.992" fill="#6D7D86" width="2.009" height="1.505"/>
		<rect x="10.512" y="11.013" fill="#6D7D86" width="2.008" height="1.506"/>
		<rect x="10.512" y="8.503" fill="#6D7D86" width="2.008" height="1.505"/>
		<rect x="10.512" y="5.992" fill="#6D7D86" width="2.008" height="1.505"/>
	</g>
</g>
</svg>
