<?xml version="1.0" encoding="utf-8"?>
<!-- Generator: Adobe Illustrator 16.0.0, SVG Export Plug-In . SVG Version: 6.00 Build 0)  -->
<!DOCTYPE svg PUBLIC "-//W3C//DTD SVG 1.1//EN" "http://www.w3.org/Graphics/SVG/1.1/DTD/svg11.dtd">
<svg version="1.1" id="Layer_1" xmlns="http://www.w3.org/2000/svg" xmlns:xlink="http://www.w3.org/1999/xlink" x="0px" y="0px"
	 width="25px" height="25px" viewBox="0 0 25 25" enable-background="new 0 0 25 25" xml:space="preserve">
<g>
	<rect x="2.423" y="19.507" fill="#6D7D86" width="21.024" height="0.835"/>
	<path fill="#6D7D86" d="M23.131,6.372c-1.528-0.812-3.263-0.38-4.45,0.125l-3.536,1.504l-6.083-2.79L5.439,5.352l5.023,4.645
		l-3.202,1.388l-3.33-1.157L1.7,11.176l2.015,2.282c-0.213,0.232-0.405,0.559-0.23,0.901c0.229,0.446,0.904,0.673,2.013,0.673
		c0.229,0,0.475-0.01,0.738-0.028c1.217-0.089,2.537-0.371,3.363-0.723l12.644-5.377c1.092-0.464,1.636-0.952,1.662-1.491
		C23.919,7.134,23.796,6.727,23.131,6.372z M21.854,8.149L9.212,13.525c-0.703,0.299-1.857,0.55-2.94,0.639
		c-1.108,0.091-1.7-0.023-1.897-0.119c0.041-0.052,0.117-0.132,0.256-0.244l0.329-0.263l-1.815-2.057l0.822-0.348l3.335,1.158
		l4.715-2.044L7.537,6.105l1.327-0.052l6.265,2.875l3.939-1.675c1.438-0.612,2.651-0.666,3.603-0.159l0,0
		c0.239,0.127,0.324,0.238,0.321,0.282C22.991,7.378,22.964,7.677,21.854,8.149z"/>
</g>
</svg>
