<?xml version="1.0" encoding="utf-8"?>
<!-- Generator: Adobe Illustrator 16.0.0, SVG Export Plug-In . SVG Version: 6.00 Build 0)  -->
<!DOCTYPE svg PUBLIC "-//W3C//DTD SVG 1.1//EN" "http://www.w3.org/Graphics/SVG/1.1/DTD/svg11.dtd">
<svg version="1.1" id="Layer_1" xmlns="http://www.w3.org/2000/svg" xmlns:xlink="http://www.w3.org/1999/xlink" x="0px" y="0px"
	 width="40px" height="40px" viewBox="0 0 40 40" enable-background="new 0 0 40 40" xml:space="preserve">
<title>Untitled 4</title>
<desc>Created with Sketch.</desc>
<g id="Page-1">
	<g id="google-icon">
		<circle id="Oval" fill="#F7F7F7" cx="20.228" cy="19.766" r="16.225"/>
		<g id="Clipped" transform="translate(5.403929, 4.612000)">
			<g id="SVGID_1_">
			</g>
			<defs>
				<filter id="Adobe_OpacityMaskFilter" filterUnits="userSpaceOnUse" x="1.506" y="7.79" width="9.633" height="14.727">
					<feColorMatrix  type="matrix" values="1 0 0 0 0  0 1 0 0 0  0 0 1 0 0  0 0 0 1 0"/>
				</filter>
			</defs>
			<mask maskUnits="userSpaceOnUse" x="1.506" y="7.79" width="9.633" height="14.727" id="mask-2">
				<g filter="url(#Adobe_OpacityMaskFilter)">
					<path id="path-1" fill="#FFFFFF" d="M26.727,12.885h-1.416h-4.646h-5.556v4.816h6.687c-0.623,3.063-3.231,4.816-6.687,4.816
						c-4.078,0-7.363-3.285-7.363-7.363s3.285-7.364,7.363-7.364c1.755,0,3.347,0.624,4.594,1.646l3.624-3.625
						c-2.209-1.938-5.048-3.123-8.218-3.123c-6.917,0-12.465,5.555-12.465,12.465c0,6.91,5.555,12.465,12.465,12.465
						c6.232,0,11.903-4.531,11.903-12.465C27.004,14.415,26.896,13.622,26.727,12.885L26.727,12.885z"/>
				</g>
			</mask>
			<path id="Shape" mask="url(#mask-2)" fill="#FBBC05" d="M1.506,22.517V7.79l9.633,7.364L1.506,22.517z"/>
		</g>
		<g id="Clipped_1_" transform="translate(5.403929, 4.612000)">
			<g id="SVGID_3_">
			</g>
			<defs>
				<filter id="Adobe_OpacityMaskFilter_1_" filterUnits="userSpaceOnUse" x="1.506" y="1.551" width="27.2" height="13.603">
					<feColorMatrix  type="matrix" values="1 0 0 0 0  0 1 0 0 0  0 0 1 0 0  0 0 0 1 0"/>
				</filter>
			</defs>
			<mask maskUnits="userSpaceOnUse" x="1.506" y="1.551" width="27.2" height="13.603" id="mask-4">
				<g filter="url(#Adobe_OpacityMaskFilter_1_)">
					<path id="path-3" fill="#FFFFFF" d="M26.727,12.885h-1.416h-4.646h-5.556v4.816h6.687c-0.623,3.063-3.231,4.816-6.687,4.816
						c-4.078,0-7.363-3.285-7.363-7.363s3.285-7.364,7.363-7.364c1.755,0,3.347,0.624,4.594,1.646l3.624-3.625
						c-2.209-1.938-5.048-3.123-8.218-3.123c-6.917,0-12.465,5.555-12.465,12.465c0,6.91,5.555,12.465,12.465,12.465
						c6.232,0,11.903-4.531,11.903-12.465C27.004,14.415,26.896,13.622,26.727,12.885L26.727,12.885z"/>
				</g>
			</mask>
			<path id="Shape_1_" mask="url(#mask-4)" fill="#EA4335" d="M1.506,7.79l9.633,7.364l3.97-3.455l13.597-2.208V1.551h-27.2V7.79z"
				/>
		</g>
		<g id="Clipped_2_" transform="translate(5.403929, 4.612000)">
			<g id="SVGID_5_">
			</g>
			<defs>
				<filter id="Adobe_OpacityMaskFilter_2_" filterUnits="userSpaceOnUse" x="1.506" y="1.551" width="27.2" height="27.205">
					<feColorMatrix  type="matrix" values="1 0 0 0 0  0 1 0 0 0  0 0 1 0 0  0 0 0 1 0"/>
				</filter>
			</defs>
			<mask maskUnits="userSpaceOnUse" x="1.506" y="1.551" width="27.2" height="27.205" id="mask-6">
				<g filter="url(#Adobe_OpacityMaskFilter_2_)">
					<path id="path-5" fill="#FFFFFF" d="M26.727,12.885h-1.416h-4.646h-5.556v4.816h6.687c-0.623,3.063-3.231,4.816-6.687,4.816
						c-4.078,0-7.363-3.285-7.363-7.363s3.285-7.364,7.363-7.364c1.755,0,3.347,0.624,4.594,1.646l3.624-3.625
						c-2.209-1.938-5.048-3.123-8.218-3.123c-6.917,0-12.465,5.555-12.465,12.465c0,6.91,5.555,12.465,12.465,12.465
						c6.232,0,11.903-4.531,11.903-12.465C27.004,14.415,26.896,13.622,26.727,12.885L26.727,12.885z"/>
				</g>
			</mask>
			<path id="Shape_2_" mask="url(#mask-6)" fill="#34A853" d="M1.506,22.517L18.51,9.491l4.478,0.562l5.718-8.501v27.205h-27.2
				V22.517z"/>
		</g>
		<g id="Clipped_3_" transform="translate(5.403929, 4.612000)">
			<g id="SVGID_7_">
			</g>
			<defs>
				<filter id="Adobe_OpacityMaskFilter_3_" filterUnits="userSpaceOnUse" x="8.876" y="7.79" width="19.829" height="20.966">
					<feColorMatrix  type="matrix" values="1 0 0 0 0  0 1 0 0 0  0 0 1 0 0  0 0 0 1 0"/>
				</filter>
			</defs>
			<mask maskUnits="userSpaceOnUse" x="8.876" y="7.79" width="19.829" height="20.966" id="mask-8">
				<g filter="url(#Adobe_OpacityMaskFilter_3_)">
					<path id="path-7" fill="#FFFFFF" d="M26.727,12.885h-1.416h-4.646h-5.556v4.816h6.687c-0.623,3.063-3.231,4.816-6.687,4.816
						c-4.078,0-7.363-3.285-7.363-7.363s3.285-7.364,7.363-7.364c1.755,0,3.347,0.624,4.594,1.646l3.624-3.625
						c-2.209-1.938-5.048-3.123-8.218-3.123c-6.917,0-12.465,5.555-12.465,12.465c0,6.91,5.555,12.465,12.465,12.465
						c6.232,0,11.903-4.531,11.903-12.465C27.004,14.415,26.896,13.622,26.727,12.885L26.727,12.885z"/>
				</g>
			</mask>
			<path id="Shape_3_" mask="url(#mask-8)" fill="#4285F4" d="M28.705,28.756L11.139,15.154l-2.263-1.7L28.705,7.79V28.756z"/>
		</g>
	</g>
</g>
</svg>
