<?xml version="1.0" encoding="iso-8859-1"?>
<!-- Generator: Adobe Illustrator 19.0.0, SVG Export Plug-In . SVG Version: 6.00 Build 0)  -->
<svg version="1.1" id="Capa_1" xmlns="http://www.w3.org/2000/svg" xmlns:xlink="http://www.w3.org/1999/xlink" x="0px" y="0px"
	 viewBox="0 0 511.999 511.999" style="enable-background:new 0 0 511.999 511.999;" xml:space="preserve">
<path style="fill:#FFFFFF;" d="M256.25,126c132.55,0,246,160,246,160s-113.45,160-246,160s-246-160-246-160S123.7,126,256.25,126z"
	/>
<path style="fill:#B0E7FF;" d="M322.91,211.53c-0.02-0.03-0.04-0.05-0.06-0.06c-19.073-17.03-42.875-25.47-66.6-25.47
	c-15.964,0-32.174,4.112-45.48,10.95c-0.01,0.01-0.02,0.01-0.03,0.02c-29.73,15.109-50.6,44.911-53.99,79.04l-0.01,19.98
	c4.995,50.337,47.654,90.01,99.51,90.01c55.13,0,100-44.86,100-100C356.25,256.1,342.565,228.788,322.91,211.53z"/>
<path d="M156.49,295.99c5.29-0.26,9.51-4.64,9.51-9.99s-4.21-9.72-9.5-9.99c-0.16-0.01-0.33-0.01-0.5-0.01c-5.52,0-10,4.48-10,10
	s4.48,10,10,10C156.17,296,156.33,296,156.49,295.99z"/>
<path d="M329.258,204.012l0.002-0.001c-18.335-16.371-40.234-25.693-65.161-27.714c-47.948-3.539-91.588,24.602-109.313,66.616
	c-2.146,5.089,0.238,10.954,5.327,13.101c5.087,2.144,10.953-0.237,13.101-5.327c14.433-34.215,50.192-57.355,89.338-54.449
	c58.701,4.757,100.016,62.519,77.077,122.122c-11.048,28.705-39.27,58.913-85.487,57.614c-0.094-0.003-0.188-0.004-0.281-0.004
	h-0.153c-0.159-0.011-0.317-0.017-0.477-0.019c-34.121-0.48-66.284-22.453-80.033-54.676c-2.167-5.079-8.038-7.439-13.122-5.273
	c-5.079,2.168-7.44,8.043-5.272,13.123c16.272,38.138,54.586,66.888,102.096,66.888c47.224,0,85.282-28.603,101.396-70.47
	C374.499,283.436,365.663,235.668,329.258,204.012z"/>
<path d="M257,315.29c-4.272,0-8.885-2.687-12.985-7.564c-3.554-4.229-9.863-4.774-14.089-1.22c-4.228,3.554-4.774,9.861-1.22,14.089
	c5.346,6.36,11.632,10.791,18.294,13.025v11.67c0,5.522,4.478,10,10,10c5.522,0,10-4.478,10-10v-11.72
	c11.639-4.128,20-15.243,20-28.28c0-16.542-13.458-30-30-30c-5.514,0-10-4.486-10-10s4.486-10,10-10
	c3.542,0,7.282,1.808,10.815,5.227c3.97,3.84,10.3,3.736,14.141-0.232c3.84-3.969,3.736-10.3-0.232-14.141
	c-5.075-4.911-10.153-7.689-14.724-9.205V225.29c0-5.522-4.478-10-10-10c-5.522,0-10,4.478-10,10v11.72
	c-11.639,4.128-20,15.243-20,28.28c0,16.542,13.458,30,30,30c5.514,0,10,4.486,10,10S262.514,315.29,257,315.29z"/>
<path d="M17.314,197.619C43.913,169.089,139.736,76,256,76s212.087,93.089,238.686,121.619c1.97,2.112,4.64,3.181,7.316,3.181
	c2.442,0,4.89-0.889,6.817-2.686c4.039-3.767,4.261-10.094,0.495-14.134C444.498,114.46,351.553,56,256,56
	C160.478,56,67.532,114.427,2.686,183.98c-3.766,4.04-3.544,10.367,0.495,14.134C7.222,201.882,13.548,201.659,17.314,197.619z"/>
<path d="M435.355,198.531C385.523,154.166,322.688,116,256,116c-66.706,0-129.545,38.186-179.355,82.531
	c-45.261,40.293-73.617,80.014-74.802,81.685c-2.457,3.465-2.457,8.104,0,11.568c1.185,1.671,29.541,41.392,74.802,81.685
	C126.477,417.834,189.312,456,256,456c66.706,0,129.545-38.186,179.355-82.531c45.261-40.293,73.617-80.014,74.802-81.685
	c2.457-3.465,2.457-8.104,0-11.568C508.973,278.545,480.616,238.824,435.355,198.531z M421.745,358.808
	C382.121,394.022,321.2,436,256,436s-126.121-41.978-165.745-77.192c-33.789-30.028-58.3-60.424-67.78-72.808
	c9.482-12.388,33.993-42.782,67.78-72.808C129.879,177.978,190.8,136,256,136s126.121,41.978,165.745,77.192
	c33.787,30.025,58.298,60.42,67.78,72.808C480.043,298.388,455.532,328.782,421.745,358.808z"/>
<g>
</g>
<g>
</g>
<g>
</g>
<g>
</g>
<g>
</g>
<g>
</g>
<g>
</g>
<g>
</g>
<g>
</g>
<g>
</g>
<g>
</g>
<g>
</g>
<g>
</g>
<g>
</g>
<g>
</g>
</svg>
