<?xml version="1.0" encoding="utf-8"?>
<!-- Generator: Adobe Illustrator 16.0.0, SVG Export Plug-In . SVG Version: 6.00 Build 0)  -->
<!DOCTYPE svg PUBLIC "-//W3C//DTD SVG 1.1//EN" "http://www.w3.org/Graphics/SVG/1.1/DTD/svg11.dtd">
<svg version="1.1" id="Layer_1" xmlns="http://www.w3.org/2000/svg" xmlns:xlink="http://www.w3.org/1999/xlink" x="0px" y="0px"
	 width="25px" height="25px" viewBox="0 0 25 25" enable-background="new 0 0 25 25" xml:space="preserve">
<g>
	<rect x="2.159" y="19.507" fill="#6D7D86" width="21.024" height="0.835"/>
	<path fill="#6D7D86" d="M1.7,7.416c0.026,0.539,0.57,1.027,1.662,1.491l12.644,5.375c0.826,0.352,2.146,0.634,3.363,0.722
		c0.264,0.019,0.51,0.028,0.738,0.028c1.109,0,1.783-0.227,2.013-0.673c0.175-0.343-0.018-0.669-0.23-0.901l2.015-2.282l-2.23-0.948
		l-3.33,1.157l-3.201-1.387l5.021-4.646l-3.621-0.14L10.46,8.002L6.923,6.499c-1.188-0.505-2.922-0.936-4.45-0.124
		C1.808,6.729,1.685,7.137,1.7,7.416z M2.613,7.378C2.61,7.334,2.694,7.223,2.934,7.096l0,0c0.951-0.507,2.165-0.453,3.603,0.158
		l3.94,1.675l6.264-2.875l1.327,0.051l-4.479,4.143l4.717,2.043l3.334-1.158l0.822,0.348l-1.815,2.057l0.329,0.263
		c0.139,0.112,0.215,0.192,0.256,0.244c-0.197,0.096-0.789,0.21-1.896,0.119c-1.084-0.088-2.238-0.339-2.941-0.638L3.75,8.151
		C2.641,7.68,2.613,7.381,2.613,7.378z"/>
</g>
</svg>
