<svg height="512pt" viewBox="0 0 512.00001 512" width="512pt" xmlns="http://www.w3.org/2000/svg"><path d="m248.84375 285.792969-22.636719-22.636719c-3.125-3.125-8.195312-3.125-11.320312 0l-52.023438 52.023438c-3.125 3.125-3.125 8.191406 0 11.320312l22.636719 22.636719c1.566406 1.5625 3.613281 2.34375 5.660156 2.34375 2.050782 0 4.097656-.78125 5.660156-2.34375l52.027344-52.023438c3.125-3.125 3.125-8.195312-.003906-11.320312zm0 0" fill="#dedae0"/><path d="m343.917969 0c-92.679688 0-168.078125 75.398438-168.078125 168.082031 0 92.679688 75.398437 168.078125 168.078125 168.078125 92.683593 0 168.082031-75.398437 168.082031-168.078125 0-92.683593-75.398438-168.082031-168.082031-168.082031zm0 0" fill="#ada3b2"/><path d="m343.917969 30.015625c-76.128907 0-138.066407 61.933594-138.066407 138.066406 0 76.128907 61.9375 138.066407 138.066407 138.066407 76.132812 0 138.066406-61.9375 138.066406-138.066407 0-76.132812-61.933594-138.066406-138.066406-138.066406zm0 0" fill="#f7f6f7"/><path d="m365.929688 280.132812c-76.128907 0-138.066407-61.933593-138.066407-138.066406 0-27.792968 8.265625-53.691406 22.453125-75.378906-27.320312 25.242188-44.464844 61.351562-44.464844 101.394531 0 76.128907 61.9375 138.066407 138.066407 138.066407 48.335937 0 90.941406-24.972657 115.613281-62.6875-24.621094 22.75-57.515625 36.671874-93.601562 36.671874zm0 0" fill="#dedae0"/><path d="m213.515625 338.101562-39.617187-39.617187c-3.125-3.125-8.195313-3.125-11.320313 0l-152.070313 152.074219c-10.625 10.621094-13.550781 27.242187-7.125 40.839844 1.769532 3.746093 4.195313 7.167968 7.125 10.09375 10.210938 10.214843 26.296876 13.34375 39.589844 7.6875 4.230469-1.800782 8.09375-4.4375 11.34375-7.6875l152.074219-152.070313c3.125-3.125 3.125-8.195313 0-11.320313zm0 0" fill="#887dca"/><path d="m213.515625 338.101562-20.011719-20.007812c3.128906 3.125 3.128906 8.191406 0 11.316406l-152.070312 152.074219c-3.25 3.25-7.113282 5.882813-11.34375 7.683594-8.816406 3.753906-18.851563 3.621093-27.59375.140625.273437.703125.558594 1.402344.886718 2.089844 1.769532 3.746093 4.195313 7.167968 7.125 10.09375 10.210938 10.214843 26.296876 13.34375 39.589844 7.6875 4.230469-1.800782 8.09375-4.4375 11.34375-7.6875l152.074219-152.070313c3.125-3.125 3.125-8.195313 0-11.320313zm0 0" fill="#6a5dbd"/><path d="m404.609375 234.894531-22.640625-79.234375c-.386719-1.363281-1.46875-2.417968-2.84375-2.773437-1.371094-.355469-2.828125.042969-3.832031 1.042969l-28.300781 28.296874c-1.324219 1.328126-1.550782 3.398438-.542969 4.980469l39.617187 62.253907c1.351563 2.125 4.421875 2.460937 6.203125.683593l11.320313-11.320312c1.027344-1.027344 1.417968-2.53125 1.019531-3.929688zm0 0" fill="#5bb8b0"/><path d="m359.359375 133.121094c-.355469-1.375-1.410156-2.457032-2.777344-2.847656l-79.230469-22.636719c-1.398437-.398438-2.902343-.007813-3.929687 1.019531l-11.320313 11.320312c-1.78125 1.78125-1.445312 4.851563.679688 6.203126l62.257812 39.617187c1.582032 1.007813 3.648438.78125 4.976563-.542969l28.296875-28.300781c1.003906-1.003906 1.402344-2.460937 1.046875-3.832031zm0 0" fill="#7cc6c0"/><path d="m325.203125 245.738281-16.976563-39.617187c-.40625-.945313-1.160156-1.699219-2.101562-2.101563l-39.617188-16.980469c-1.507812-.644531-3.25-.308593-4.40625.847657l-11.320312 11.320312c-1.5625 1.5625-1.5625 4.097657 0 5.660157l56.597656 56.597656c1.5625 1.5625 4.09375 1.5625 5.65625 0l11.320313-11.320313c1.160156-1.15625 1.496093-2.902343.847656-4.40625zm0 0" fill="#7cc6c0"/><path d="m325.203125 245.738281-16.976563-39.617187c-.40625-.945313-1.160156-1.699219-2.101562-2.101563l-.398438-.171875-27.980468 27.984375 29.632812 29.632813c1.5625 1.5625 4.09375 1.5625 5.65625 0l11.320313-11.320313c1.160156-1.15625 1.496093-2.902343.847656-4.40625zm0 0" fill="#5bb8b0"/><path d="m404.695312 132.953125c3.609376-4.925781 14.601563-19.910156 4.554688-29.957031s-25.03125.941406-29.957031 4.554687c-10.859375 7.960938-23.417969 20.519531-37.960938 35.0625-28.148437 28.148438-67.84375 79.09375-68.242187 79.605469-1.238282 1.59375-1.097656 3.859375.328125 5.285156l11.320312 11.320313c1.425781 1.425781 3.695313 1.570312 5.285157.328125.511718-.398438 51.460937-40.09375 79.609374-68.242188 14.542969-14.542968 27.097657-27.097656 35.0625-37.957031zm0 0" fill="#9dd4d0"/><path d="m409.25 102.996094c-1.507812-1.511719-3.128906-2.535156-4.8125-3.191406 3.710938 9.507812-4.675781 20.960937-7.746094 25.144531-7.964844 10.859375-20.523437 23.417969-35.0625 37.957031-28.148437 28.148438-79.097656 67.847656-79.609375 68.246094-1.59375 1.238281-3.859375 1.097656-5.285156-.332032l8.003906 8.003907c1.425781 1.429687 3.695313 1.570312 5.285157.332031.511718-.398438 51.460937-40.097656 79.609374-68.246094 14.539063-14.539062 27.097657-27.097656 35.0625-37.957031 3.609376-4.925781 14.601563-19.910156 4.554688-29.957031zm0 0" fill="#7cc6c0"/></svg>