<?xml version="1.0" encoding="utf-8"?>
<!-- Generator: Adobe Illustrator 16.0.0, SVG Export Plug-In . SVG Version: 6.00 Build 0)  -->
<!DOCTYPE svg PUBLIC "-//W3C//DTD SVG 1.1//EN" "http://www.w3.org/Graphics/SVG/1.1/DTD/svg11.dtd">
<svg version="1.1" id="Capa_1" xmlns="http://www.w3.org/2000/svg" xmlns:xlink="http://www.w3.org/1999/xlink" x="0px" y="0px"
	 width="221px" height="214px" viewBox="190.5 198.5 221 214" enable-background="new 190.5 198.5 221 214" xml:space="preserve">
<g>
	<path fill="#6F7D8A" d="M397.346,289.746c-2.588-2.68-5.416-4.251-7.977-5.175c3.512-20.422,2.865-31.834-80.199-57.984
		c-84.535-26.613-93.991-15.583-100.955,6.534l-1.188,3.772c-1.884,5.985,1.44,12.364,7.425,14.249l27.12,8.538
		c5.985,1.884,12.364-1.44,14.249-7.426l1.187-3.772c5.394-17.132,31.792-9.398,46.746-4.691
		c14.953,4.708,41.021,13.491,35.628,30.624l-1.188,3.772c-1.885,5.985,1.44,12.364,7.426,14.249l27.119,8.538
		c5.985,1.884,12.365-1.44,14.249-7.425l0.771-2.614c1.604,0.662,3.326,1.674,4.917,3.322c5.708,5.912,7.602,17.333,5.477,33.033
		c-3.686,27.202-14.375,36.918-25.76,40.151v-4.732c0-4.805-1.2-9.56-3.635-13.715c-11.362-19.443-27.495-36.697-47.994-51.904
		v-11.491c0-0.893-0.729-1.624-1.622-1.624h-16.864c-0.909,0-1.623,0.731-1.623,1.624v11.426h-19.25v-11.426
		c0-0.893-0.73-1.624-1.623-1.624h-16.878c-0.893,0-1.624,0.731-1.624,1.624v11.426c-20.531,15.241-36.68,32.493-48.058,51.969
		c-2.435,4.155-3.635,8.91-3.635,13.715v10.696c0,15.239,12.351,27.591,27.591,27.591h107.623c15.002,0,27.178-11.974,27.557-26.884
		c18.246-4.274,28.598-19.162,32.227-45.95C407.021,310.166,404.586,297.242,397.346,289.746z M319.184,362.99l-10.829-3.855
		c1.148-2.314,1.812-4.914,1.812-7.676c0-9.543-7.742-17.285-17.302-17.285c-9.543,0-17.302,7.742-17.302,17.285
		c0,9.561,7.758,17.303,17.302,17.303c3.535,0,6.817-1.063,9.555-2.881l5.939,9.764c-4.474,2.872-9.783,4.559-15.494,4.559
		c-15.874,0-28.728-12.871-28.728-28.743c0-15.857,12.855-28.728,28.728-28.728s28.744,12.87,28.744,28.728
		C321.608,355.564,320.733,359.459,319.184,362.99z"/>
</g>
</svg>
