<?xml version="1.0" encoding="utf-8"?>
<!-- Generator: Adobe Illustrator 16.0.0, SVG Export Plug-In . SVG Version: 6.00 Build 0)  -->
<!DOCTYPE svg PUBLIC "-//W3C//DTD SVG 1.1//EN" "http://www.w3.org/Graphics/SVG/1.1/DTD/svg11.dtd">
<svg version="1.1" id="Layer_1" xmlns="http://www.w3.org/2000/svg" xmlns:xlink="http://www.w3.org/1999/xlink" x="0px" y="0px"
	 width="20px" height="20px" viewBox="0 0 20 20" enable-background="new 0 0 20 20" xml:space="preserve">
<g>
	<g>
		<circle fill="#6D7D86" cx="12.096" cy="2.339" r="2.214"/>
		<path fill="#6D7D86" d="M17.625,7.74c-1.98-0.204-3.898-2.345-4.382-2.641c-0.295-0.214-0.646-0.354-0.98-0.407
			c0,0-0.238-0.049-0.484-0.022c-0.235,0.028-0.596,0.039-1.119,0.431c-0.038,0.022-0.305,0.256-0.391,0.357
			c-0.651,0.678-2.46,2.678-3.359,4.941c-0.128,0.321-0.048,0.67,0.175,0.907L6.025,13.19l-1.49-0.835
			c-0.178-0.103-0.403-0.039-0.503,0.138l-2.818,4.983c-0.101,0.176-0.037,0.405,0.141,0.504l1.129,0.633
			c-0.181,0.32-0.136,0.734,0.134,1.007c0.327,0.336,0.864,0.338,1.198,0.01c0.311-0.305,0.336-0.788,0.073-1.124l1.539-2.701
			l1.079-1.921l1.336-2.317c0.29-0.048,0.549-0.24,0.665-0.531c0.381-0.96,0.971-1.885,1.541-2.651l0.269,3.087
			c0.03,0.362,0.182,0.664,0.404,0.906c-0.689,1.256-2.553,4.689-3.226,5.855c-0.301,0.523-0.123,1.192,0.401,1.494
			c0.197,0.113,0.415,0.158,0.624,0.144c0.351-0.026,0.683-0.219,0.871-0.545c0.627-1.085,2.262-4.384,2.978-5.625
			c0.577,0.955,1.557,2.712,2.797,5.521c0.182,0.409,0.583,0.651,1.002,0.651c0.149,0,0.298-0.03,0.442-0.092
			c0.554-0.246,0.801-0.892,0.557-1.444c-1.465-3.313-2.546-5.152-3.141-6.12c0.236-0.297,0.377-0.664,0.341-1.099l-0.253-2.923
			c0.735,0.586,1.697,1.084,3.337,1.252c0.029,0.002,0.06,0.005,0.09,0.005c0.435,0,0.81-0.329,0.854-0.77
			C18.439,8.21,18.097,7.788,17.625,7.74z M3.204,19.362c-0.17,0-0.309-0.136-0.309-0.308c0-0.168,0.139-0.308,0.309-0.308
			c0.169,0,0.309,0.14,0.309,0.308C3.511,19.227,3.374,19.362,3.204,19.362z"/>
	</g>
</g>
</svg>
